<?xml version="1.0" standalone="no"?>
<svg xmlns:xlink="http://www.w3.org/1999/xlink" id="wave" style="transform:rotate(0deg); transition: 0.3s" viewBox="0 0 1440 180" version="1.1" xmlns="http://www.w3.org/2000/svg"><defs><linearGradient id="sw-gradient-0" x1="0" x2="0" y1="1" y2="0"><stop stop-color="rgba(244, 83, 170, 1)" offset="0%"/><stop stop-color="rgba(244, 83, 170, 1)" offset="100%"/></linearGradient></defs><path style="transform:translate(0, 0px); opacity:1" fill="url(#sw-gradient-0)" d="M0,162L15,141C30,120,60,78,90,63C120,48,150,60,180,66C210,72,240,72,270,60C300,48,330,24,360,39C390,54,420,108,450,114C480,120,510,78,540,60C570,42,600,48,630,66C660,84,690,114,720,111C750,108,780,72,810,57C840,42,870,48,900,60C930,72,960,90,990,105C1020,120,1050,132,1080,135C1110,138,1140,132,1170,132C1200,132,1230,138,1260,144C1290,150,1320,156,1350,147C1380,138,1410,114,1440,90C1470,66,1500,42,1530,36C1560,30,1590,42,1620,66C1650,90,1680,126,1710,144C1740,162,1770,162,1800,141C1830,120,1860,78,1890,57C1920,36,1950,36,1980,33C2010,30,2040,24,2070,30C2100,36,2130,54,2145,63L2160,72L2160,180L2145,180C2130,180,2100,180,2070,180C2040,180,2010,180,1980,180C1950,180,1920,180,1890,180C1860,180,1830,180,1800,180C1770,180,1740,180,1710,180C1680,180,1650,180,1620,180C1590,180,1560,180,1530,180C1500,180,1470,180,1440,180C1410,180,1380,180,1350,180C1320,180,1290,180,1260,180C1230,180,1200,180,1170,180C1140,180,1110,180,1080,180C1050,180,1020,180,990,180C960,180,930,180,900,180C870,180,840,180,810,180C780,180,750,180,720,180C690,180,660,180,630,180C600,180,570,180,540,180C510,180,480,180,450,180C420,180,390,180,360,180C330,180,300,180,270,180C240,180,210,180,180,180C150,180,120,180,90,180C60,180,30,180,15,180L0,180Z"/><defs><linearGradient id="sw-gradient-1" x1="0" x2="0" y1="1" y2="0"><stop stop-color="rgba(4, 210, 159, 1)" offset="0%"/><stop stop-color="rgba(4, 210, 159, 1)" offset="100%"/></linearGradient></defs><path style="transform:translate(0, 50px); opacity:0.9" fill="url(#sw-gradient-1)" d="M0,162L15,135C30,108,60,54,90,48C120,42,150,84,180,108C210,132,240,138,270,120C300,102,330,60,360,36C390,12,420,6,450,9C480,12,510,24,540,42C570,60,600,84,630,81C660,78,690,48,720,45C750,42,780,66,810,63C840,60,870,30,900,15C930,0,960,0,990,21C1020,42,1050,84,1080,99C1110,114,1140,102,1170,84C1200,66,1230,42,1260,54C1290,66,1320,114,1350,111C1380,108,1410,54,1440,27C1470,0,1500,0,1530,24C1560,48,1590,96,1620,123C1650,150,1680,156,1710,150C1740,144,1770,126,1800,111C1830,96,1860,84,1890,78C1920,72,1950,72,1980,63C2010,54,2040,36,2070,36C2100,36,2130,54,2145,63L2160,72L2160,180L2145,180C2130,180,2100,180,2070,180C2040,180,2010,180,1980,180C1950,180,1920,180,1890,180C1860,180,1830,180,1800,180C1770,180,1740,180,1710,180C1680,180,1650,180,1620,180C1590,180,1560,180,1530,180C1500,180,1470,180,1440,180C1410,180,1380,180,1350,180C1320,180,1290,180,1260,180C1230,180,1200,180,1170,180C1140,180,1110,180,1080,180C1050,180,1020,180,990,180C960,180,930,180,900,180C870,180,840,180,810,180C780,180,750,180,720,180C690,180,660,180,630,180C600,180,570,180,540,180C510,180,480,180,450,180C420,180,390,180,360,180C330,180,300,180,270,180C240,180,210,180,180,180C150,180,120,180,90,180C60,180,30,180,15,180L0,180Z"/></svg>