<?xml version="1.0" standalone="no"?>
<svg xmlns:xlink="http://www.w3.org/1999/xlink" id="wave" style="transform:rotate(0deg); transition: 0.3s" viewBox="0 0 1440 320" version="1.1" xmlns="http://www.w3.org/2000/svg"><defs><linearGradient id="sw-gradient-0" x1="0" x2="0" y1="1" y2="0"><stop stop-color="rgba(4, 210, 159, 1)" offset="0%"/><stop stop-color="rgba(4, 210, 159, 1)" offset="100%"/></linearGradient></defs><path style="transform:translate(0, 0px); opacity:1" fill="url(#sw-gradient-0)" d="M0,192L24,186.7C48,181,96,171,144,181.3C192,192,240,224,288,234.7C336,245,384,235,432,213.3C480,192,528,160,576,154.7C624,149,672,171,720,165.3C768,160,816,128,864,128C912,128,960,160,1008,154.7C1056,149,1104,107,1152,85.3C1200,64,1248,64,1296,101.3C1344,139,1392,213,1440,218.7C1488,224,1536,160,1584,154.7C1632,149,1680,203,1728,208C1776,213,1824,171,1872,160C1920,149,1968,171,2016,165.3C2064,160,2112,128,2160,101.3C2208,75,2256,53,2304,85.3C2352,117,2400,203,2448,202.7C2496,203,2544,117,2592,112C2640,107,2688,181,2736,186.7C2784,192,2832,128,2880,128C2928,128,2976,192,3024,229.3C3072,267,3120,277,3168,282.7C3216,288,3264,288,3312,288C3360,288,3408,288,3432,288L3456,288L3456,320L3432,320C3408,320,3360,320,3312,320C3264,320,3216,320,3168,320C3120,320,3072,320,3024,320C2976,320,2928,320,2880,320C2832,320,2784,320,2736,320C2688,320,2640,320,2592,320C2544,320,2496,320,2448,320C2400,320,2352,320,2304,320C2256,320,2208,320,2160,320C2112,320,2064,320,2016,320C1968,320,1920,320,1872,320C1824,320,1776,320,1728,320C1680,320,1632,320,1584,320C1536,320,1488,320,1440,320C1392,320,1344,320,1296,320C1248,320,1200,320,1152,320C1104,320,1056,320,1008,320C960,320,912,320,864,320C816,320,768,320,720,320C672,320,624,320,576,320C528,320,480,320,432,320C384,320,336,320,288,320C240,320,192,320,144,320C96,320,48,320,24,320L0,320Z"/><defs><linearGradient id="sw-gradient-1" x1="0" x2="0" y1="1" y2="0"><stop stop-color="rgba(250, 123, 198, 1)" offset="0%"/><stop stop-color="rgba(250, 123, 198, 1)" offset="100%"/></linearGradient></defs><path style="transform:translate(0, 50px); opacity:0.9" fill="url(#sw-gradient-1)" d="M0,96L24,96C48,96,96,96,144,101.3C192,107,240,117,288,101.3C336,85,384,43,432,48C480,53,528,107,576,133.3C624,160,672,160,720,160C768,160,816,160,864,144C912,128,960,96,1008,101.3C1056,107,1104,149,1152,181.3C1200,213,1248,235,1296,224C1344,213,1392,171,1440,149.3C1488,128,1536,128,1584,122.7C1632,117,1680,107,1728,85.3C1776,64,1824,32,1872,21.3C1920,11,1968,21,2016,48C2064,75,2112,117,2160,117.3C2208,117,2256,75,2304,90.7C2352,107,2400,181,2448,208C2496,235,2544,213,2592,197.3C2640,181,2688,171,2736,138.7C2784,107,2832,53,2880,74.7C2928,96,2976,192,3024,202.7C3072,213,3120,139,3168,122.7C3216,107,3264,149,3312,170.7C3360,192,3408,192,3432,192L3456,192L3456,320L3432,320C3408,320,3360,320,3312,320C3264,320,3216,320,3168,320C3120,320,3072,320,3024,320C2976,320,2928,320,2880,320C2832,320,2784,320,2736,320C2688,320,2640,320,2592,320C2544,320,2496,320,2448,320C2400,320,2352,320,2304,320C2256,320,2208,320,2160,320C2112,320,2064,320,2016,320C1968,320,1920,320,1872,320C1824,320,1776,320,1728,320C1680,320,1632,320,1584,320C1536,320,1488,320,1440,320C1392,320,1344,320,1296,320C1248,320,1200,320,1152,320C1104,320,1056,320,1008,320C960,320,912,320,864,320C816,320,768,320,720,320C672,320,624,320,576,320C528,320,480,320,432,320C384,320,336,320,288,320C240,320,192,320,144,320C96,320,48,320,24,320L0,320Z"/><defs><linearGradient id="sw-gradient-2" x1="0" x2="0" y1="1" y2="0"><stop stop-color="rgba(230, 190, 5, 1)" offset="0%"/><stop stop-color="rgba(230, 190, 5, 1)" offset="100%"/></linearGradient></defs><path style="transform:translate(0, 100px); opacity:0.8" fill="url(#sw-gradient-2)" d="M0,0L24,10.7C48,21,96,43,144,90.7C192,139,240,213,288,202.7C336,192,384,96,432,85.3C480,75,528,149,576,197.3C624,245,672,267,720,229.3C768,192,816,96,864,96C912,96,960,192,1008,234.7C1056,277,1104,267,1152,245.3C1200,224,1248,192,1296,149.3C1344,107,1392,53,1440,53.3C1488,53,1536,107,1584,106.7C1632,107,1680,53,1728,37.3C1776,21,1824,43,1872,53.3C1920,64,1968,64,2016,85.3C2064,107,2112,149,2160,186.7C2208,224,2256,256,2304,261.3C2352,267,2400,245,2448,224C2496,203,2544,181,2592,154.7C2640,128,2688,96,2736,117.3C2784,139,2832,213,2880,218.7C2928,224,2976,160,3024,112C3072,64,3120,32,3168,32C3216,32,3264,64,3312,74.7C3360,85,3408,75,3432,69.3L3456,64L3456,320L3432,320C3408,320,3360,320,3312,320C3264,320,3216,320,3168,320C3120,320,3072,320,3024,320C2976,320,2928,320,2880,320C2832,320,2784,320,2736,320C2688,320,2640,320,2592,320C2544,320,2496,320,2448,320C2400,320,2352,320,2304,320C2256,320,2208,320,2160,320C2112,320,2064,320,2016,320C1968,320,1920,320,1872,320C1824,320,1776,320,1728,320C1680,320,1632,320,1584,320C1536,320,1488,320,1440,320C1392,320,1344,320,1296,320C1248,320,1200,320,1152,320C1104,320,1056,320,1008,320C960,320,912,320,864,320C816,320,768,320,720,320C672,320,624,320,576,320C528,320,480,320,432,320C384,320,336,320,288,320C240,320,192,320,144,320C96,320,48,320,24,320L0,320Z"/><defs><linearGradient id="sw-gradient-3" x1="0" x2="0" y1="1" y2="0"><stop stop-color="rgba(252, 61, 160, 1)" offset="0%"/><stop stop-color="rgba(252, 61, 160, 1)" offset="100%"/></linearGradient></defs><path style="transform:translate(0, 150px); opacity:0.7" fill="url(#sw-gradient-3)" d="M0,64L24,64C48,64,96,64,144,74.7C192,85,240,107,288,138.7C336,171,384,213,432,213.3C480,213,528,171,576,165.3C624,160,672,192,720,213.3C768,235,816,245,864,229.3C912,213,960,171,1008,144C1056,117,1104,107,1152,101.3C1200,96,1248,96,1296,128C1344,160,1392,224,1440,245.3C1488,267,1536,245,1584,197.3C1632,149,1680,75,1728,85.3C1776,96,1824,192,1872,240C1920,288,1968,288,2016,245.3C2064,203,2112,117,2160,85.3C2208,53,2256,75,2304,96C2352,117,2400,139,2448,133.3C2496,128,2544,96,2592,96C2640,96,2688,128,2736,122.7C2784,117,2832,75,2880,48C2928,21,2976,11,3024,48C3072,85,3120,171,3168,181.3C3216,192,3264,128,3312,106.7C3360,85,3408,107,3432,117.3L3456,128L3456,320L3432,320C3408,320,3360,320,3312,320C3264,320,3216,320,3168,320C3120,320,3072,320,3024,320C2976,320,2928,320,2880,320C2832,320,2784,320,2736,320C2688,320,2640,320,2592,320C2544,320,2496,320,2448,320C2400,320,2352,320,2304,320C2256,320,2208,320,2160,320C2112,320,2064,320,2016,320C1968,320,1920,320,1872,320C1824,320,1776,320,1728,320C1680,320,1632,320,1584,320C1536,320,1488,320,1440,320C1392,320,1344,320,1296,320C1248,320,1200,320,1152,320C1104,320,1056,320,1008,320C960,320,912,320,864,320C816,320,768,320,720,320C672,320,624,320,576,320C528,320,480,320,432,320C384,320,336,320,288,320C240,320,192,320,144,320C96,320,48,320,24,320L0,320Z"/></svg>